<?xml version="1.0" encoding="UTF-8" standalone="no"?>
<!-- Created with Inkscape (http://www.inkscape.org/) -->

<svg
   xmlns:dc="http://purl.org/dc/elements/1.1/"
   xmlns:cc="http://creativecommons.org/ns#"
   xmlns:rdf="http://www.w3.org/1999/02/22-rdf-syntax-ns#"
   xmlns:svg="http://www.w3.org/2000/svg"
   xmlns="http://www.w3.org/2000/svg"
   xmlns:inkscape="http://www.inkscape.org/namespaces/inkscape"
   version="1.1"
   width="1052.3625"
   height="744.09998"
   id="svg2"
   xml:space="preserve"><metadata
     id="metadata8"><rdf:RDF><cc:Work
         rdf:about=""><dc:format>image/svg+xml</dc:format><dc:type
           rdf:resource="http://purl.org/dc/dcmitype/StillImage" /></cc:Work></rdf:RDF></metadata><defs
     id="defs6"><clipPath
       id="clipPath16"><path
         d="m 0,595.28 841.89,0 L 841.89,0 0,0 0,595.28 z"
         inkscape:connector-curvature="0"
         id="path18" /></clipPath></defs><g
     transform="matrix(1.25,0,0,-1.25,0,744.1)"
     id="g10"><g
       id="g12"><g
         clip-path="url(#clipPath16)"
         id="g14"><g
           transform="translate(420.6465,401.4141)"
           id="g20"><path
             d="M 0,0 C -1.332,1.444 -31.145,27.061 0.312,68.361 43.068,124.242 23.099,142.559 0,169.87 l -8.424,-9.004 C -7.091,159.421 22.693,117.804 -8.765,76.505 -57.51,12.59 -18.148,4.883 -8.424,-9.126 L 0,0 z m -45.895,0 c -1.305,1.444 -31.231,27.061 0.339,68.361 47.415,61.97 10.743,89.442 -0.339,101.509 l -8.397,-9.004 c 1.305,-1.445 31.117,-43.062 -0.34,-84.361 -51.471,-67.288 -11.695,-68.248 0.34,-85.631 L -45.895,0 z m 273.743,-71.893 c 8.538,0.247 17.326,6.364 25.41,6.948 8.879,0.491 17.41,2.472 24.821,1.105 26.849,-4.95 33.182,-9.957 38.664,-37.581 11.434,-57.621 -35.884,-124.605 -87.539,-124.605 -22.579,0 -40.803,2.683 -57.086,5.664 32.707,43.481 51.895,95.156 56.206,154.217 l -0.476,-5.748 z m 1.356,-174.046 c 63.398,0 105.947,58.764 105.947,128.518 0,50.642 -28.933,73.494 -57.072,73.494 -8.084,0 -16.737,-0.615 -25.927,-1.198 -7.432,-0.492 -14.572,1.478 -22.457,1.232 l -0.377,-0.034 -530.191,0 c 0,-108.165 56.079,-202.135 138.625,-250.38 -84.559,-6.023 -142.171,-17.792 -142.171,-31.466 0,-19.789 120.215,-51.645 268.599,-51.645 148.355,0 268.683,31.856 268.683,51.645 0,13.674 -57.838,25.567 -142.823,31.559 24.706,14.411 47.087,32.665 66.264,54.39 22.38,-6.115 48.988,-6.115 72.9,-6.115"
             inkscape:connector-curvature="0"
             id="path22"
             style="fill:#231f20;fill-opacity:1;fill-rule:nonzero;stroke:none" /></g></g></g></g></svg>